<?xml version="1.0" encoding="utf-8"?>
<!-- Generator: Adobe Illustrator 20.1.0, SVG Export Plug-In . SVG Version: 6.00 Build 0)  -->
<svg version="1.1" id="Layer_1" focusable="false" xmlns="http://www.w3.org/2000/svg" xmlns:xlink="http://www.w3.org/1999/xlink"
	 x="0px" y="0px" viewBox="0 0 16 16" style="enable-background:new 0 0 16 16;" xml:space="preserve">
<style type="text/css">
	.st0{fill:#CDCDCD;}
</style>
<path class="st0" d="M15.3,9.9l-1.4-0.8c0.2-0.8,0.2-1.5,0-2.3l1.4-0.8c0.2-0.1,0.2-0.3,0.2-0.5c-0.3-1.2-0.9-2.2-1.7-3.1
	c-0.1-0.1-0.3-0.2-0.5-0.1l-1.4,0.8c-0.6-0.5-1.2-0.9-1.9-1.1V0.6c0-0.2-0.1-0.3-0.3-0.4c-1.2-0.3-2.3-0.3-3.4,0
	C6.1,0.2,6,0.4,6,0.6v1.6C5.3,2.4,4.6,2.8,4.1,3.3L2.7,2.5C2.5,2.4,2.4,2.4,2.2,2.6C1.5,3.4,0.9,4.5,0.5,5.6C0.5,5.8,0.5,6,0.7,6.1
	L2,6.9C1.9,7.6,1.9,8.4,2,9.1L0.7,9.9c-0.2,0.1-0.2,0.3-0.2,0.5c0.3,1.2,0.9,2.2,1.7,3.1c0.1,0.1,0.3,0.2,0.5,0.1l1.4-0.8
	c0.6,0.5,1.2,0.9,1.9,1.1v1.6c0,0.2,0.1,0.3,0.3,0.4c1.2,0.3,2.3,0.2,3.4,0c0.2-0.1,0.3-0.2,0.3-0.4v-1.6c0.7-0.3,1.3-0.6,1.9-1.1
	l1.4,0.8c0.2,0.1,0.3,0.1,0.5-0.1c0.8-0.9,1.4-1.9,1.7-3.1C15.5,10.2,15.5,10,15.3,9.9z M8,10.6c-1.4,0-2.5-1.1-2.5-2.6
	c0-1.4,1.1-2.6,2.5-2.6c1.4,0,2.5,1.2,2.5,2.6C10.5,9.4,9.4,10.6,8,10.6z"/>
</svg>
